/* XPM */
static char * crab3_xpm[] = {
"64 64 7 1",
" 	c #0095E9",
".	c #000000",
"+	c #000000",
"@	c #E51C23",
"#	c #C41411",
"$	c #6C0000",
"%	c #FFFFFF",
"                                                                ",
"                                                                ",
"                                                                ",
"                                                                ",
"                                                                ",
"                                                                ",
"                                                                ",
"                                                                ",
"                                                                ",
"                                                                ",
"                                                                ",
"                                                                ",
"                                                                ",
"                                                                ",
"                                                                ",
"                                                                ",
"                                                                ",
"                                                                ",
"                                                                ",
"                                                                ",
"                                                                ",
"                                                                ",
"                          ............                          ",
"                          $$$$$$$$$$$$                          ",
"        ..              .$############$.              ..        ",
"        $$              $##@@@@@@@@@@##$              $$        ",
"      .$##$.  ..      .$##@@@@@@@@@@@@##$.      ..  .$##$.      ",
"      .$##$$  $$      $##@@@@@@@@@@@@@@##$      $$  $$##$.      ",
"      .$####$$##$.  .$##@@##@@@@@@@@##@@##$.  .$##$$####$.      ",
"      .$##@######$  .$#@@##$#@@@@@@#$##@@#$.  $######@##$.      ",
"      .$##@@##@@##$..$#@@##$$#@@@@#$$##@@#$..$##@@##@@##$.      ",
"      .$###@@@@@@#$..$#@@@####@@@@####@@@#$..$#@@@@@@###$.      ",
"        $$########$..$#@@@@##@@@@@@##@@@@#$..$########$$        ",
"        .$########$..$#@@@@@@@@@@@@@@@@@@#$..$########$.        ",
"          $$$$$$$$  .$#@@@@@@@@@@@@@@@@@@#$.  $$$$$$$$          ",
"          ........  .$$##@@@@@@@@@@@@@@##$$.  ........          ",
"                  ....$$#@@@@@@@@@@@@@@#$$....                  ",
"                  $$$$$$$##############$$$$$$$                  ",
"                .$####$.$$$$$$$$$$$$$$$$.$####$.                ",
"                $##@##$..................$##@##$                ",
"              .$##@##$                    $##@##$.              ",
"              .$#@##$.                    .$##@#$.              ",
"              .$###$                        $###$.              ",
"              .$##$.                        .$##$.              ",
"              .$##$.                        .$##$.              ",
"              .$##$.                        .$##$.              ",
"                $$                            $$                ",
"                ..                            ..                ",
"                                                                ",
"                                                                ",
"                                                                ",
"                                                                ",
"                                                                ",
"                                                                ",
"                                                                ",
"                                                                ",
"                                                                ",
"                                                                ",
"                                                                ",
"                                                                ",
"                                                                ",
"                                                                ",
"                                                                ",
"                                                                "};
