/* XPM */
static char * rato1_xpm[] = {
"64 64 18 1",
" 	c #0095E9",
".	c #FFFFFF",
"+	c #28232F",
"@	c #F7A966",
"#	c #B8713B",
"$	c #884920",
"%	c #8C2A38",
"&	c #BB3F4A",
"*	c #661205",
"=	c #FFF4ED",
"-	c #8B230A",
";	c #DDE3E4",
">	c #A3AEB2",
",	c #7B8588",
"'	c #584B41",
")	c #78695D",
"!	c #382E28",
"~	c #FFFFFF",
"                                                                ",
"                                                                ",
"                                                                ",
"                                                                ",
"                                                                ",
"                                                                ",
"                                                                ",
"                                                                ",
"                                                                ",
"                                                                ",
"                                                                ",
"                                                                ",
"                                                                ",
"                                                                ",
"                                                                ",
"                                                                ",
"                                                                ",
"                                                                ",
"                                                                ",
"                                                                ",
"                          +++ ++                                ",
"                         +@@#+$$+                               ",
"                        +@%%@#$#+                               ",
"                        +@&&&@$##+                              ",
"                        +#&%%@@@#+                              ",
"                         +#%@@@@@#+                             ",
"                          +##@#*#@@++                           ",
"                          +#@@=-@@@&&+                          ",
"                         +++@@@@@@@%&+                          ",
"                        +;;>$#@@@@#++                           ",
"                      ++@;;;#$$++=+                             ",
"                     +@@#;;;;##>,+                              ",
"                    +@#++>>;;;;>>,+                             ",
"                   +@@+ +>;;;;;,>>+                             ",
"                  +#@@++>;;;;;>+$$+                             ",
"                  +@@@@+;;;;;;,+$$+                             ",
"                  +@@+#')>;;;>,++$$++                           ",
"                   +@++)))))''!!++$##+                          ",
"                    + +)))))''''+ +$$#+                         ",
"                     +)))))''''''++#$$+                         ",
"                    +)))))'+!'''''++++                          ",
"                    +')))'+ +!!!''+                             ",
"                    +'''++   ++''!+                             ",
"                   +##++       +#+                              ",
"                 ++@@+         +#++                             ",
"                +##@@+        +$$##++                           ",
"               +@#@@#+        +$#####+                          ",
"                                                                ",
"                                                                ",
"                                                                ",
"                                                                ",
"                                                                ",
"                                                                ",
"                                                                ",
"                                                                ",
"                                                                ",
"                                                                ",
"                                                                ",
"                                                                ",
"                                                                ",
"                                                                ",
"                                                                ",
"                                                                ",
"                                                                "};
