/* XPM */
static char * coin8_xpm[] = {
"64 64 21 1",
" 	c #0095E9",
".	c #000000",
"+	c #3E3546",
"@	c #324C43",
"#	c #30583E",
"$	c #362B3A",
"%	c #31413E",
"&	c #2F4B3A",
"*	c #382E3E",
"=	c #2E222F",
"-	c #2D212E",
";	c #2E222F",
">	c #2D212E",
",	c #3E3546",
"'	c #1A7A3E",
")	c #14A02E",
"!	c #59C135",
"~	c #9CDB43",
"{	c #2E222F",
"]	c #24523B",
"^	c #FFFFFF",
"                                                                ",
"                                                                ",
"                                                                ",
"                                                                ",
"                                                                ",
"                                                                ",
"                                                                ",
"                                                                ",
"                                                                ",
"                                                                ",
"                                                                ",
"                                                                ",
"                                                                ",
"                                                                ",
"                        ++++++++++++++++                        ",
"                        ++++++++++++++++                        ",
"                        ################                        ",
"                     ++@'''))!!!!!!))'''@++                     ",
"                     ++@'''))!!!!!!))'''@++                     ",
"                   ++###'))!!!!!!!!!!))'''#++                   ",
"                   ++#''))!!!!!!!!!!!)))))'++                   ",
"                   ++#''))!!!!!!!!!!!!))))'@%                   ",
"                ++@##'))))!!!!!!!!!~~~~!)))''#++                ",
"                ++#'')))))!!!!!!!!!~~~~~!))))#++                ",
"                @@#'')))))!!!!!!!!!~~~~~!))))'%@                ",
"             ++@#'''')))))!!!!!!!!!~~~~~!!!))''#@++             ",
"             ++@''''')))))!!!!!!!!!~~~~~!!!))'''@++             ",
"             **%'''''))))))!!!!!!!!~~~~~!!!)))''@**             ",
"             ==%'''''))))))))!!!!!!!!!!!!!!)))))&==             ",
"             --%'''''))))))))!!!!!!!!!!!!!!)))))&--             ",
"             &]]'''''')))))))!!!!!!!!!!!!~!)))))''#             ",
"           ++#''''''''''))))))))!!!!!!!!~~~))'''))'++           ",
"           ++#''''''''''))))))))!!!!!!!!~~!))'''))'++           ",
"           ++#''''''''''''))))))!!!!!!!!!!!))'''))'++           ",
"           ++#''''''''''''')))))!!!!!!))]]'))'''))'++           ",
"           ++#''''''''''''')))))!!!!!)))]]'))'''))'++           ",
"           $$#''''']]]]]]]''''''))))))))]]''')))))'$$           ",
"           -=]''''']]]]]]]]'''''))))))))]]]'')))))'=-           ",
"          %%&'''''']]]]]]]]'''''))))))))'#''')))))'&%%          ",
"        ++#''''']]]]]]]]]]]]]'''''''')))!!!!!!!!)))''#++        ",
"        ++#''''']]]]]]]]]]]]]'''''''')))!!!!!!!!)))''#++        ",
"        **#''''']]]]]]]]]]]]]'''''''''))!!!!!!!!!))''#**        ",
"      ====]''''']]]]]]]]]]]]]'''''''''''))!!!~~~!!!))#-===      ",
"     ====-]''''']]]]]]]]]]]]]'''''''''''))!!!~~~!!!))'-====     ",
"     -===-]''')''']]]]]]]]]]]'''''''))')!!!!!!~~!!!))#-===-     ",
"   -----=-]'')))''']]]]]]]]]]'''''')))))!!!!!!!!!!!))'-=-----   ",
"   -----=-]'')))''']]]]]]]]]]'''''')))))!!!!!!!!!!!))#-=-----   ",
"   -----=-]'''''''''']]]]]]'''''''''')))))!!!!!!!))'']-=-----   ",
"   -----=-]'''''''''']]]]]]'''''''''')))))!!!!!!)))'']-=-----   ",
"   -----=-]''''''''''']]]]'''''''''''))))))!!!!!)))'']-=-----   ",
"   =======$&&'''''')))))''''')))''''''''''''')))))'&%$====---   ",
"   =======--=]''''')))))''''')))''''''''''''')))))'=--=====--   ",
"   ==========]''''')))))''''''))''''''''''''''))))'========--   ",
"   ===========$&''')))))''''''''''''''''''''''''&%%========--   ",
"   ==========--%''')))))''''''''''''''''''''''''%--========--   ",
"   ===========-$]]''''''']]]]]]]]]]]]]]]]]]]]]]]$-========---   ",
"   ------------==================================------------   ",
"   -------------==-------=======================-------------   ",
"     -=----------=----------------------------=----------=-     ",
"     ===------------------------------------------------===     ",
"      ==------------------------------------------------==      ",
"        ==--------------------------------------------==        ",
"        ===------------------------------------------===        ",
"        ===------------------------------------------===        "};
