/* XPM */
static char * Songoko1_xpm[] = {
"32 32 569 2",
"  	c #FFFFFF",
". 	c #FEFEFE",
"+ 	c #F6F6F5",
"@ 	c #DEDFDE",
"# 	c #C7C8C8",
"$ 	c #E8E8E8",
"% 	c #F9F8F9",
"& 	c #D6D6D7",
"* 	c #8B8C8D",
"= 	c #4B4B4D",
"- 	c #5A5A5B",
"; 	c #DADADA",
"> 	c #F1F1F1",
", 	c #B0B0B1",
"' 	c #4F5051",
") 	c #28292B",
"! 	c #121315",
"~ 	c #6B6B6B",
"{ 	c #FCFDFC",
"] 	c #F8F9F9",
"^ 	c #F5F6F6",
"/ 	c #FBFBFB",
"( 	c #9D9D9E",
"_ 	c #353637",
": 	c #38393B",
"< 	c #252628",
"[ 	c #0C0D0E",
"} 	c #696969",
"| 	c #F0EFEF",
"1 	c #F9F9F9",
"2 	c #DEDFDF",
"3 	c #B0B0B0",
"4 	c #858686",
"5 	c #696A6B",
"6 	c #7F8080",
"7 	c #DEDEDE",
"8 	c #B9B9B9",
"9 	c #333434",
"0 	c #2C2D2F",
"a 	c #454648",
"b 	c #2A2B2D",
"c 	c #0C0E0F",
"d 	c #4E4D4D",
"e 	c #C1C0C0",
"f 	c #A7A8A8",
"g 	c #525354",
"h 	c #363739",
"i 	c #1F2022",
"j 	c #3D3E3E",
"k 	c #BEBEBE",
"l 	c #FAFAFA",
"m 	c #F0F0F0",
"n 	c #777778",
"o 	c #131416",
"p 	c #313234",
"q 	c #4B4C4E",
"r 	c #353537",
"s 	c #171719",
"t 	c #393939",
"u 	c #343436",
"v 	c #414244",
"w 	c #2A2B2C",
"x 	c #151516",
"y 	c #8E8E8E",
"z 	c #F2F2F2",
"A 	c #F8F8F8",
"B 	c #B4B4B4",
"C 	c #909190",
"D 	c #DCDDDC",
"E 	c #D7D8D7",
"F 	c #5A5B5B",
"G 	c #101113",
"H 	c #303133",
"I 	c #4E4F51",
"J 	c #454647",
"K 	c #1D1E21",
"L 	c #0D0E13",
"M 	c #111216",
"N 	c #3D3E41",
"O 	c #3F3F41",
"P 	c #1B1C1D",
"Q 	c #141415",
"R 	c #8F8F8F",
"S 	c #EAEAEA",
"T 	c #6A6B6C",
"U 	c #3A3B3C",
"V 	c #626463",
"W 	c #898A8A",
"X 	c #3A3A3B",
"Y 	c #0F1012",
"Z 	c #2D2E30",
"` 	c #4A4B4C",
" .	c #2C2D30",
"..	c #0F1216",
"+.	c #101216",
"@.	c #323437",
"#.	c #2B2C2F",
"$.	c #141518",
"%.	c #0D0D10",
"&.	c #2A2A2B",
"*.	c #616161",
"=.	c #999999",
"-.	c #CECECE",
";.	c #FDFDFD",
">.	c #B8B8B8",
",.	c #505152",
"'.	c #323335",
").	c #1C1D1F",
"!.	c #0F1013",
"~.	c #0E0F12",
"{.	c #252629",
"].	c #343637",
"^.	c #2B2C2E",
"/.	c #131519",
"(.	c #0C1015",
"_.	c #0D1316",
":.	c #0F1417",
"<.	c #0F1316",
"[.	c #0D1115",
"}.	c #0C1014",
"|.	c #0C0F12",
"1.	c #0E1113",
"2.	c #181819",
"3.	c #363737",
"4.	c #777777",
"5.	c #BBBBBB",
"6.	c #E6E6E6",
"7.	c #F4F5F4",
"8.	c #E2E3E3",
"9.	c #E7E7E7",
"0.	c #B2B2B2",
"a.	c #3E3F41",
"b.	c #4F5052",
"c.	c #333435",
"d.	c #0F0F12",
"e.	c #111217",
"f.	c #0C0F14",
"g.	c #121419",
"h.	c #1C1E22",
"i.	c #2E3032",
"j.	c #2A2D2F",
"k.	c #232527",
"l.	c #202225",
"m.	c #1D1F21",
"n.	c #131619",
"o.	c #101317",
"p.	c #292A2D",
"q.	c #1F1F23",
"r.	c #16171A",
"s.	c #28292A",
"t.	c #4A4B4B",
"u.	c #666767",
"v.	c #5E5E5F",
"w.	c #5C5C5C",
"x.	c #CCCCCC",
"y.	c #4B4B4C",
"z.	c #48494B",
"A.	c #464749",
"B.	c #1C1E1F",
"C.	c #131517",
"D.	c #1A1B1E",
"E.	c #13151A",
"F.	c #232528",
"G.	c #292A2C",
"H.	c #434446",
"I.	c #3C3D3F",
"J.	c #464748",
"K.	c #2B2B2E",
"L.	c #121317",
"M.	c #393A3C",
"N.	c #3D3D40",
"O.	c #15161A",
"P.	c #131316",
"Q.	c #1D1D1F",
"R.	c #6F7070",
"S.	c #E1E2E2",
"T.	c #FCFCFC",
"U.	c #D3D3D4",
"V.	c #707071",
"W.	c #222224",
"X.	c #2E2F30",
"Y.	c #222324",
"Z.	c #302C2B",
"`.	c #141417",
" +	c #1B1C1F",
".+	c #2F2D2F",
"++	c #2B2929",
"@+	c #2F3032",
"#+	c #393A3B",
"$+	c #3F4042",
"%+	c #1E1C1C",
"&+	c #333232",
"*+	c #424344",
"=+	c #1E1D1D",
"-+	c #0E1012",
";+	c #515152",
">+	c #848586",
",+	c #89898A",
"'+	c #CFCFD0",
")+	c #D0D0D0",
"!+	c #636363",
"~+	c #2B2B2C",
"{+	c #0D0D0F",
"]+	c #1E1F21",
"^+	c #5F524A",
"/+	c #9E8573",
"(+	c #392F2A",
"_+	c #151619",
":+	c #312C29",
"<+	c #796A5F",
"[+	c #98816F",
"}+	c #443931",
"|+	c #1B1C1C",
"1+	c #1C1C1F",
"2+	c #6E5A51",
"3+	c #A18777",
"4+	c #4F453D",
"5+	c #2C2928",
"6+	c #6D5F57",
"7+	c #342E2C",
"8+	c #111214",
"9+	c #141517",
"0+	c #1D1E20",
"a+	c #252727",
"b+	c #323333",
"c+	c #868687",
"d+	c #E9E9E9",
"e+	c #F7F7F7",
"f+	c #BFBFBF",
"g+	c #505050",
"h+	c #101011",
"i+	c #0A0B0C",
"j+	c #222426",
"k+	c #3E4042",
"l+	c #9A806E",
"m+	c #D1AC90",
"n+	c #937E6C",
"o+	c #3A342F",
"p+	c #1A191C",
"q+	c #766357",
"r+	c #B89B87",
"s+	c #D9B293",
"t+	c #BC9A80",
"u+	c #604E42",
"v+	c #241F1D",
"w+	c #201B1A",
"x+	c #967664",
"y+	c #EFBF9F",
"z+	c #C8A288",
"A+	c #705E52",
"B+	c #7C6659",
"C+	c #6D5B50",
"D+	c #191C1E",
"E+	c #131415",
"F+	c #171718",
"G+	c #303030",
"H+	c #8B8B8B",
"I+	c #E4E4E4",
"J+	c #D2D2D2",
"K+	c #7D7D7D",
"L+	c #2E2D2D",
"M+	c #39322E",
"N+	c #424040",
"O+	c #877569",
"P+	c #AB8D78",
"Q+	c #998475",
"R+	c #83756C",
"S+	c #675B54",
"T+	c #7B6657",
"U+	c #D7B096",
"V+	c #E1B798",
"W+	c #F7C5A2",
"X+	c #E3B697",
"Y+	c #B4937B",
"Z+	c #7F6857",
"`+	c #987D6A",
" @	c #D6B097",
".@	c #AE907B",
"+@	c #9B7F6B",
"@@	c #A4836D",
"#@	c #866D5D",
"$@	c #322E2C",
"%@	c #1F1C1B",
"&@	c #4E4E4E",
"*@	c #EFEFEF",
"=@	c #B1B1B1",
"-@	c #616060",
";@	c #7B6154",
">@	c #806657",
",@	c #917867",
"'@	c #D9AE91",
")@	c #B79A84",
"!@	c #786D65",
"~@	c #81746A",
"{@	c #B69B85",
"]@	c #ECBE9E",
"^@	c #F9C6A3",
"/@	c #FCC8A3",
"(@	c #FCC7A2",
"_@	c #FAC6A3",
":@	c #E8BC9A",
"<@	c #B09885",
"[@	c #7B7169",
"}@	c #8F7B6A",
"|@	c #CDA285",
"1@	c #D8A888",
"2@	c #937560",
"3@	c #765E4F",
"4@	c #392E28",
"5@	c #383838",
"6@	c #9B9B9B",
"7@	c #E5E5E5",
"8@	c #848585",
"9@	c #5C483C",
"0@	c #A27C65",
"a@	c #CDA081",
"b@	c #CDA287",
"c@	c #4F433C",
"d@	c #1D1E1E",
"e@	c #665549",
"f@	c #DEB394",
"g@	c #FCC7A3",
"h@	c #FDC7A3",
"i@	c #FEC8A4",
"j@	c #FDC8A4",
"k@	c #F6C39F",
"l@	c #B1917B",
"m@	c #363331",
"n@	c #1F1B1A",
"o@	c #93725F",
"p@	c #D3A382",
"q@	c #AC8368",
"r@	c #745D4D",
"s@	c #444140",
"t@	c #959595",
"u@	c #E3E3E3",
"v@	c #CACACB",
"w@	c #9D9C9C",
"x@	c #9A867C",
"y@	c #D2A385",
"z@	c #E1B091",
"A@	c #A78671",
"B@	c #836B5A",
"C@	c #B7927C",
"D@	c #F1BF9C",
"E@	c #FAC7A2",
"F@	c #FBC7A2",
"G@	c #F9C39F",
"H@	c #FBC5A1",
"I@	c #F9C5A2",
"J@	c #DCB092",
"K@	c #937665",
"L@	c #896E5D",
"M@	c #C69B7F",
"N@	c #D7A885",
"O@	c #AA8A76",
"P@	c #A09C9A",
"Q@	c #D2D3D3",
"R@	c #F6F6F6",
"S@	c #FAFAF9",
"T@	c #E8E2DD",
"U@	c #CCA48B",
"V@	c #E5B18F",
"W@	c #EFBB96",
"X@	c #F0BD98",
"Y@	c #F5C09C",
"Z@	c #F8C49F",
"`@	c #F7C49E",
" #	c #F5C39D",
".#	c #ECB994",
"+#	c #F2BD99",
"@#	c #F8C39F",
"##	c #F9C29F",
"$#	c #F7C09D",
"%#	c #F1BC99",
"&#	c #ECB895",
"*#	c #E5B190",
"=#	c #CE9F82",
"-#	c #CFBFB6",
";#	c #F6F5F5",
">#	c #FFFFFE",
",#	c #FAF9F7",
"'#	c #D9CCC0",
")#	c #C8A289",
"!#	c #D8A787",
"~#	c #E1AD8C",
"{#	c #E5B08D",
"]#	c #E5B18E",
"^#	c #E3B18D",
"/#	c #E2B18D",
"(#	c #E3B18E",
"_#	c #E3B08D",
":#	c #E4AF8D",
"<#	c #E1AD8A",
"[#	c #DAA784",
"}#	c #CA9D80",
"|#	c #C4AB99",
"1#	c #EDE9E5",
"2#	c #FBFBF8",
"3#	c #EAE5E2",
"4#	c #D8CBC3",
"5#	c #D0BCB1",
"6#	c #C9AFA0",
"7#	c #AA856F",
"8#	c #A1725A",
"9#	c #A37257",
"0#	c #A37358",
"a#	c #A2765E",
"b#	c #9F765D",
"c#	c #9D7459",
"d#	c #A17960",
"e#	c #A27B63",
"f#	c #9E8372",
"g#	c #C0B1A7",
"h#	c #D6C9C0",
"i#	c #EEEBE6",
"j#	c #FEFEFD",
"k#	c #F8F8F6",
"l#	c #C8C1BD",
"m#	c #6F5A6A",
"n#	c #76536C",
"o#	c #99524A",
"p#	c #A74E25",
"q#	c #90543A",
"r#	c #7B5B4D",
"s#	c #765B4F",
"t#	c #8C7466",
"u#	c #80685D",
"v#	c #5F5254",
"w#	c #A07F6D",
"x#	c #BDA08E",
"y#	c #E6E0DB",
"z#	c #FFFEFE",
"A#	c #F8F9F7",
"B#	c #C9C0BC",
"C#	c #BE9E90",
"D#	c #C0A6A0",
"E#	c #987B7D",
"F#	c #AC5435",
"G#	c #A84B22",
"H#	c #7A5146",
"I#	c #C4BAB4",
"J#	c #E7E4E2",
"K#	c #C5C3C2",
"L#	c #B5ABA1",
"M#	c #BA9E89",
"N#	c #D6CBC0",
"O#	c #F9FAF8",
"P#	c #F5F4F0",
"Q#	c #C8A89A",
"R#	c #E3AF8F",
"S#	c #F6CBAA",
"T#	c #DDB396",
"U#	c #905A4B",
"V#	c #85402B",
"W#	c #A58B81",
"X#	c #EEEBE7",
"Y#	c #FDFDFC",
"Z#	c #FAFAF8",
"`#	c #F4F2EE",
" $	c #F2EFED",
".$	c #FEFFFF",
"+$	c #F1EDE8",
"@$	c #B28E84",
"#$	c #C88F72",
"$$	c #EABB9D",
"%$	c #BBA5A1",
"&$	c #776B83",
"*$	c #9E8177",
"=$	c #B79383",
"-$	c #D2B5A9",
";$	c #E9DCD5",
">$	c #F9F7F4",
",$	c #FEFFFE",
"'$	c #FCFAF9",
")$	c #DCB7AD",
"!$	c #D96533",
"~$	c #CD5D28",
"{$	c #AC6D58",
"]$	c #746476",
"^$	c #C7A598",
"/$	c #F3C1A1",
"($	c #F0BD9B",
"_$	c #CD937A",
":$	c #B06957",
"<$	c #CF9B8C",
"[$	c #ECE0DB",
"}$	c #FEFDFD",
"|$	c #EFE8E1",
"1$	c #DA886D",
"2$	c #F46921",
"3$	c #F3661D",
"4$	c #C7541C",
"5$	c #9B7B71",
"6$	c #C7B3A4",
"7$	c #D0AD95",
"8$	c #BA9077",
"9$	c #8F6155",
"0$	c #8D4D49",
"a$	c #C8633D",
"b$	c #D7B7AE",
"c$	c #FCFCFB",
"d$	c #EFEBE3",
"e$	c #D69872",
"f$	c #E97C2F",
"g$	c #E76E22",
"h$	c #CE6F4B",
"i$	c #DCCCC7",
"j$	c #F5F4F1",
"k$	c #C1C1C1",
"l$	c #7B7579",
"m$	c #815242",
"n$	c #9F6949",
"o$	c #A57455",
"p$	c #E3DBD3",
"q$	c #FDFEFE",
"r$	c #E0E1E0",
"s$	c #7F7A86",
"t$	c #8F8271",
"u$	c #947E5D",
"v$	c #B7ABA3",
"w$	c #F7F6F4",
"x$	c #ABACB0",
"y$	c #3F3C61",
"z$	c #46416B",
"A$	c #696474",
"B$	c #E3E3E2",
"C$	c #FCFCFA",
"D$	c #D5CFCD",
"E$	c #85606F",
"F$	c #8D6868",
"G$	c #7F6469",
"H$	c #C5C2C3",
"I$	c #F8F8F7",
"J$	c #B1ACAD",
"K$	c #685067",
"L$	c #705C7A",
"M$	c #676084",
"N$	c #80869D",
"O$	c #ADB2BB",
"P$	c #D8DADA",
"Q$	c #F8F9F5",
"R$	c #FBFBF9",
"S$	c #BABEC0",
"T$	c #484D70",
"U$	c #6A6A6A",
"V$	c #767474",
"W$	c #D7D5D5",
"X$	c #FDFEFD",
"Y$	c #D4D2C7",
"Z$	c #C1BEAA",
"`$	c #C2C2AE",
" %	c #C2C3B1",
".%	c #C2C2AF",
"+%	c #BFBFA7",
"@%	c #C8C7B0",
"#%	c #E9E8DD",
"$%	c #FDFDFB",
"%%	c #E8E8DD",
"&%	c #D4D2BC",
"*%	c #D6D5B4",
"=%	c #D5D5B9",
"-%	c #FEFDFC",
";%	c #FDFEFB",
">%	c #FDFDF9",
",%	c #FCFDF9",
"'%	c #FCFCF8",
")%	c #FCFDFA",
"!%	c #FDFEFC",
"                  . + @ # $                                     ",
"                % & * = - ; .                                   ",
"            . > , ' ) ! ~ >     { ] ^ ^ /                       ",
"            > ( _ : < [ } | 1 2 3 4 5 6 7 .                     ",
"          / 8 9 0 a b c d e f g h i j k l                       ",
"    l 1 . m n o p q r ! s t u v w x y z                         ",
"  A B C D E F G H I J K L M N O P Q R S l .                     ",
". 7 T U V W X Y Z ` I  ...+.@.#.$.%.&.*.=.-.z ;.                ",
". >.,.I '.).!.~.{.].^./.(._.:.<.[.}.|.1.2.3.4.5.6.7.z 8.9..     ",
". 0.a.q b.c.d.~.M e.f.g.h.i.j.k.l.m.n.o.p.q.r.s.t.u.v.w.5.;.    ",
". x.y.h z.A.B.C.D.e.E.F.G.H.: I.J.A.K.L.M.N.O.P.!.!.Q.R.S.1 1 T.",
"z U.V.W.^.X.i Y.Z.`. +{.)..+++@+#+$+^.%+&+*+) =+s -+-+;+>+,+,+'+",
")+!+~+{+G ]+@+^+/+(+_+ +:+<+[+}+|+i 1+2+3+4+5+6+7+8+9+0+a+b+c+d+",
"e+f+g+h+i+j+k+l+m+n+o+p+q+r+s+t+u+v+w+x+y+z+A+B+C+D+E+F+G+H+I+. ",
"  l J+K+L+M+N+O+P+Q+R+S+T+U+V+W+X+Y+Z+`+ @.@+@@@#@$@%@&@3 *@.   ",
"  . d+=@-@;@>@,@'@)@!@~@{@]@^@/@(@_@:@<@[@}@|@1@2@3@4@5@6@m     ",
"  . 7@8@9 9@0@a@b@c@d@e@f@g@h@i@i@j@k@l@m@n@o@p@q@r@s@t@u@;.    ",
"    . > v@w@x@y@z@A@B@C@D@E@F@G@H@h@I@J@K@L@M@N@O@P@Q@R@.       ",
"        . S@T@U@V@W@X@Y@Z@`@ #.#+#@###$#%#&#*#=#-#;#.           ",
"          >#,#'#)#!#~#{#]#^#^#/#(#^#_#:#<#[#}#|#1#.             ",
"            >#2#3#4#5#6#7#8#9#0#a#b#c#d#e#f#g#h#i#.             ",
"                  j#k#l#m#n#o#p#q#r#s#t#u#v#w#x#y#z#            ",
"                  >#A#B#C#D#E#F#G#H#I#J#K#L#M#N#O#              ",
"                    P#Q#R#S#T#U#V#W#X#Y#Y#Z#`# ${               ",
"                  .$+$@$#$$$%$&$*$=$-$;$>$j#>#,$                ",
"                >#'$)$!$~${$]$^$/$($_$:$<$[$}$                  ",
"                . |$1$2$3$4$5$6$7$8$9$0$a$b$c$                  ",
"                . d$e$f$g$h$i$j$k$l$m$n$o$p$j#                  ",
"                q$r$s$t$u$v$w$. ^ x$y$z$A$B$C$>#                ",
"                Y#D$E$F$G$H$;.  I$J$K$L$M$N$O$P$Q$              ",
"                R$S$T$U$V$W$X$  S@Y$Z$`$ %.%+%@%#%j#            ",
"                $%%%&%*%=%#%-%  >#;%>%,%,%,%'%)%!%              "};
