/* XPM */
static char * wall1_xpm[] = {
"64 64 58 1",
" 	c #75403A",
".	c #733E38",
"+	c #723D37",
"@	c #75403A",
"#	c #753E39",
"$	c #763F3A",
"%	c #743D38",
"&	c #733C37",
"*	c #78433D",
"=	c #7E4943",
"-	c #7F4A44",
";	c #7C4741",
">	c #7A453F",
",	c #7B4640",
"'	c #7D4842",
")	c #804944",
"!	c #7F4843",
"~	c #7C4540",
"{	c #79423D",
"]	c #77403B",
"^	c #79443E",
"/	c #814C46",
"(	c #85504A",
"_	c #844F49",
":	c #854E49",
"<	c #824B46",
"[	c #7D4641",
"}	c #76413B",
"|	c #87524C",
"1	c #8A554F",
"2	c #86514B",
"3	c #7B443F",
"4	c #78413C",
"5	c #713C36",
"6	c #77423C",
"7	c #6F3A34",
"8	c #703B35",
"9	c #723B36",
"0	c #804B45",
"a	c #7E4742",
"b	c #834E48",
"c	c #824D47",
"d	c #88534D",
"e	c #814A45",
"f	c #88514C",
"g	c #89544E",
"h	c #834C47",
"i	c #8A534E",
"j	c #844D48",
"k	c #7A433E",
"l	c #713A35",
"m	c #703934",
"n	c #87504B",
"o	c #864F4A",
"p	c #8E5752",
"q	c #89524D",
"r	c #8B5650",
"s	c #6F3833",
" .++.@@.@@@@@@@@@@@@@@@@.++.  .+#$$$$#%&%%%&&%%%.@@@@@@ @@@@@@@@",
"@....@@.@@@@@@@@@@@@@@@@+*=-;>,')!~{]#####%%%%##.@@@@@@ @@@@@@@@",
".@@@...@@@@@@@@@@@@@@@@@.^/((__(:<[{$##$########.@@@@@@ @@@@@@@@",
".@  @.@@@@@@@@@@@@@@@@@@ @}=|12/[34#&%#$###$$###.@@@@@@ @@@@@@@@",
".@   @@@@@@@@@@@@@@@@@@@ +5}=/=>##%%%%##%%####%%.@@@@@@ @@@@@@@@",
"@@@ }}@.@@@@@@@@@@@@@@@@@}6}.+ 6%%#$$$#%%%#$$#%%.@@@@@@ @@@@@@@@",
"}@+@6* 5@@@@@@@@@@@@@@@@@6*}57+}%#$$$$#%%#$]]$#%.@@@@@@ @@@@@@@@",
"6.5@*^ 8@@@@@@@@@@@@@@@@ @.@ }}@9&&&%%%%#$]44]$#.@@@@@@ @@@@@@@@",
"6@.*-0>+}@.@}}}}+.@ }}}}@@@@@@@@&#$#%##&{]${a!{%.*65*bc}.@  @@..",
"5+}-|db;@..@   }6}}     @@@@@@@@#44#&%%%9%{eff<~5}6}'dgc^}@.@ @+",
"+@6'//'>.@      ..++.@ }@@@@@@@@&]4#9&$]9#3)he~4@ }6,-0=>}++@} +",
"}} @..@@.}6}@  @+++..@@@@@@@@@@@{a)3$%#$$]]]#%%&}@@ @++@ .5+@  @",
".@.+5+ 6.}}@. @+}666 @+5@@@@@@@@hfij3$&9##%&9&$4@+.} +.}8+@@++. ",
"5.}} @@ . @5.6*@++.@ @@.@@@@@@@@[ej)k]#&%##$###$ @ } @@}+ 6 +5@*",
". }}@.++@ .5}-->@.++.@}6@@@@@@@@&$]$#$]]##$]$#&9 } @.@.+ }} @6;0",
"  @..@6^66@.,2|/b0,}..@ @@@@@@@@]4$&9%$##%%#]44]+@@+@**@6 +.6=(g",
"&#$%ll#{]%%4):j<ha3k]&$[k4$$]]#&@     @@.++ **@8]#&&#]]]&99&$3ej",
"$]4$%&%$$&l9#$&m4$%%%$~<n<3#&&%#@@@@@@@@@ }}  }}4]##$]$%4]$###$]",
"$$$$#%%&4]$$]]$#&%%9#~hopq<k#%${@@.++.@@},=;6.@}$###$#%&&%%##%&9",
"$###$$$#9&%##$]4%4]%$a<eee)[4$$] @.++.  ;cd|-6++#%%##$$$l9&#$$$#",
"4$#%#$$$%#$#&99&&]]%#{k$&#44$%%% @...@}6/(ddb;}.]$$###$]]]$##%%%",
"$$#%&&&&$]]$#%%#%$#%#$#9%%%%&&#$ @@@@ }6';,>>^6 #$#%&&&%$#%&9&&%",
"&${3{444$$$]4{{{k$%#$$#$4]#%#$$$...@@  }@.+++.@ 9#4k{444]]44{k33",
"%k<oojj:no::oo:ja]9%#&%4$%%#$$%95+.@@@@@5.  @.@ &4!j:jjhjjj:jjhh",
"4{{~enf::fio!3[)$$$##%%%##%%&%##@    @..@@@@@@@@$]{~)jnqo:ofoea[",
"9&%$~<h)h::){#%$###########]44$#6} @.@@ @@@@@@@@]$##4~ejj<eea4%%",
"%%&&#4]%4{{4$##$########$#%#]]#&@@...@@@@@@@@@@@$#%&%$4k{]]4]#%#",
"]]$&%#&ml99%$4{{%%%##$$$]$%&99&%75.  @+5@@@@@@@@&%$]]#&99ml%##]{",
"&##%#44$]$##$$#%%%%##$$$%]334]{~**6} @..@@@@@@@@&#$4]$&9]%%#%&&#",
"%$$%#$]#4]$$##%&########l4eoojjj(/,}@@ 6@@@@@@@@$#%&&%#$4#%#%99&",
"$4]#&%%9%######$########&]a:qqno/=>}@@ }@@@@@@@@$#%&&%$]%9&#$%%$",
"9#$%%$]$$]]$#%%#$$$##%%%{$$ke:j<.@ } @+5@@@@@@@@%#$]]$#%#&%$$%%#",
"#&99#$#&########5 6 @}}@..@ 66} ########%#$$##%% ..@@55. @.+.@.+",
"]$##$$$$########.}}.+@@+@...@@ @########m9&&&&&% 6*6 @ } .++.@@.",
"################  @5+@@+@@..++@ ########%#]4444]+6*@.}6  .+.@@@@",
"99%]33{#########@...@}}@.@ @..@}########&9&]33$l7  + ;'6} ..@@@.",
"#%$[:nek########.+.@  @@.@  @@@@########$%$[::a$@} @;2('6}@@@@.+",
"]#]aon<3########..@ @+. 6}@@ @.+########]${)fqh~}}@}=2_'*} @@@.+",
"$#${3~k]########@.@ .+*-/;}@ }@+########l&$4{4$# .. *>>*} @@   @",
"$]]#99&#########..@ @}0rrb^ }*}@########{[!3#9%] @@}@55@ @.. }}}",
"#%&&&&%%m%]$$4{4} .+}=b_b(_'@8+}9#$&9$]#%eqj{%&%@.++..+5 @+. } .",
"$]$$#%%&$]]4[h:hc0,} **6@ } .+@ 3k4$$$&l&{[{$${k...@ }}}}  }^'0/",
"%##$#%&94$%#~jn:='^@. @+...@@.+5]%&#]$&9%#%99#$%@  @.++. @@@6;b|",
"&&%%####$#99$~a[.@.+.}6 6}} @+58#%#{{#%$##%%##&m@  @+5+.@@@..};/",
"$$#%%#]]#]]##]4] } @ 6}.5..+55@6)<j<3%&$%%#]4]$$+.@@ }66@ } .@6^",
"]$#%&&%%9$4]#$$# } .. @5+@@+85 ^)oq<4%#]$#%#%9%] @..@@.++.@@@.@ ",
"&%$]]]$$&##%#$#9+++5+  .66} @@@@#!<{9#4$]##]4#%#* +.}6 +..++.@.+",
"9#ka))![]$%&$4$l }@.@66 @+5.}6 +l~[9s$4&%&]):ha[ .+6=bc0*}@.   .",
"..6=(|/,@@@@@@@@@@@@@@@@...@}} @    @.++@@*-(20^#]$]!qq<$$$##%%%",
"..@*'-,*@@@@@@@@@@@@@@@@   @.++5.+++..@@@@ ^'=>}&##%kee3########",
"@..@ }} @@@@@@@@@@@@@@@@@@  @@@ .++++.@  @@@}} .&##&#{{#########",
"   @..@ @@@@@@@@@@@@@@@@@.+. } @@@@@@@@@    @..@%]]#%$$%%%%##$$$",
"@ }} @@ @@@@@@@@@@@@@@@@6.5+}6@7..@   ... }} @@@#]4$%#$#%%%##$$$",
"+@ } @@@@@@@@@@@@@@@@@@@@+.*-c-,..@   @.+. }} @@##$$###$########",
"@@@@@@@@@@@@@@@@@@@@@@@@5@>/2ggd,>*}@@@@..@@  @.#%%#############",
"6 ..@  @@@@@@@@@@@@@@@@@@>/((bb_2b'6@+.@} ..@  @]#%#]$##$$$##%%%",
"%##%$4]%]$###%&9}+8+@@@ + ^;=',^=;>6    @@@@@@@@########4$]44#&%",
"9]{]%%&9&&%##$]] @ 6}.. +.@ }} @ @....@@@@@@@@@@&%#$$#%%#&9&%%${",
"#$#%%]$%%$]]#%#]+.6*}+.}  @...@@++..@   @@@@@@@@%%%%#$]]]#%##%#]",
"k#sm{<<[a))~$99%+5.  ..}6} @.@    }}}  @@@@@@@@@]#&&#ka<)!!)[]9l",
"44]{efqnnffh[{4k*.85@@.@........    @.++@@@@@@@@$$4k[<ofqffq:a{]",
"l~:ohhof:on:he<h-655@ .55+.@@@....@@@@@@@@@@@@@@%]~<:oo:qn:o:<hj",
"l3h<[3[!~[[aa!!);}+. @.+@@        @@@ }6@@@@@@@@%]3a))a[!~3[[[!<",
"$$%&#4]%##%%#$#%@++@ ..   @...@@} @.+.@ @@@@@@@@]]$##$$]%&%]]#%#"};
