/* XPM */
static char * wall_xpm[] = {
"64 64 67 1",
" 	c #000000",
".	c #0092E8",
"+	c #0093E9",
"@	c #0094E9",
"#	c #0095E9",
"$	c #0096E9",
"%	c #0097E9",
"&	c #0098E9",
"*	c #0098EA",
"=	c #0099EA",
"-	c #009AEA",
";	c #009BEA",
">	c #019BEA",
",	c #019CEA",
"'	c #019DEA",
")	c #019EEB",
"!	c #019FEB",
"~	c #01A0EB",
"{	c #01A1EB",
"]	c #01A2EB",
"^	c #01A3EC",
"/	c #01A4EC",
"(	c #01A5EC",
"_	c #01A6EC",
":	c #01A7EC",
"<	c #02A7EC",
"[	c #02A8EC",
"}	c #02A8ED",
"|	c #02A9ED",
"1	c #02ABED",
"2	c #02ACED",
"3	c #02ADED",
"4	c #02ADEE",
"5	c #02AEEE",
"6	c #02AFEE",
"7	c #02B0EE",
"8	c #02B1EE",
"9	c #02B2EE",
"0	c #02B2EF",
"a	c #02B3EF",
"b	c #03B3EF",
"c	c #03B4EF",
"d	c #03B5EF",
"e	c #03B6EF",
"f	c #03B7EF",
"g	c #03B8EF",
"h	c #03B8F0",
"i	c #03B9F0",
"j	c #03BAF0",
"k	c #03BBF0",
"l	c #03BCF0",
"m	c #03BDF1",
"n	c #03BEF1",
"o	c #03BFF1",
"p	c #04BFF1",
"q	c #04C0F1",
"r	c #04C1F1",
"s	c #04C2F1",
"t	c #04C2F2",
"u	c #04C3F2",
"v	c #04C4F2",
"w	c #04C5F2",
"x	c #04C6F2",
"y	c #04C7F2",
"z	c #04C8F2",
"A	c #04C8F3",
"B	c #04C9F3",
"################################################################",
"################################################################",
"################################################################",
"################################################################",
"################################################################",
"################################################################",
"################################################################",
"##########################################################@@@+@@",
"################################################################",
"#######################################################@@#*,!!!!",
"#####################################################@@+.@)19b99",
"#####################################################$%%$=_gsvss",
"###################################################@$'/}}|apyAyy",
"###################################################@%/blllouxxxx",
"##################################################@@%(dnnnquwxww",
"############@@++++++++@@###########################@$)<213dqyzyy",
"############$$$%$$$$%$$##############################%*=*;[iuwvv",
"##########@#-{(((((((/~=@@###########################@@+.#!3dedd",
"#########@+${7ijhhhhjh5!#+############################@@@#=)]]]]",
"#########$%'1lwxwwwwxvi},%$#####################################",
"#######@#-^4hryyyyyyzxqe2{=@@#############################@@++++",
"#######@#)6muvwwwwwwwwvuk2>@@###################################",
"#######+#!cvAxwwwwwwwwyAt7'@@###################################",
"#######+#!cvAxwwwwwwwwyAu8'@@###################################",
"#######@#)6nvwwwwwwwwwwul2,@@###################################",
"#######@#-/6isyyyyyyyxqf4]=@@###################################",
"#########$*)2lwxwwwwywj|'&$#####################################",
"#########@+$]8jkjjjjki6~#+######################################",
"##########@#;]_:____:_{=@@######################################",
"############$%%%%%%%%%%$########################################",
"############@@++++++++@@########################################",
"################################################################",
"################################################################",
"################################################################",
"################################################################",
"################################################################",
"################################################################",
"################################################################",
"################################################@@++++++++++@@##",
"################################################$$$$$$$$$$$$$$##",
"#############################################@@#;{//////////]>$+",
"#############################################@+%^9higggggghi0/&.",
"#############################################$&)4nwxwwwwwwxxn5!=",
"###########################################@#>(7kvBBAAAAAABBwj84",
"###########################################@#~8nuvwwwwwwwwwwvrpn",
"###########################################@#!5hjihhhhhhhhhhiiij",
"###########################################@#=~(_(((((((((((((__",
"##############################################$$%$$$$$$$$$$$$$$$",
"##############################################@+++++++++++++++++",
"################################################################",
"################################################################",
"################################################################",
"################################################################",
"################################################################",
"################################################################",
"################################################################",
"################################################################",
"################################################################",
"################################################################",
"################################################################",
"################################################################",
"################################################################",
"################################################################",
"################################################################"};
